# Blender v3.6.2 OBJ File: 'ParkWalk.blend'
# www.blender.org
mtllib Coin.mtl
o Coin.001_Cube.006
v 0.823978 0.823978 0.141320
v 0.823978 -0.823978 0.141320
v 0.000000 0.000000 0.141320
v 0.500000 0.000000 0.141320
v 0.000000 0.500000 0.141320
v 0.500000 0.500000 0.141320
v 0.000000 -0.500000 0.141320
v 0.500000 -0.500000 0.141320
v 0.000000 -1.159913 0.141320
v 0.000000 1.159913 0.141320
v 1.159913 0.000000 0.141320
v 0.519685 -1.039370 0.141320
v 0.519685 1.039370 0.141320
v 1.039370 0.519685 0.141320
v 1.039370 -0.519685 0.141320
v 1.159913 0.000000 0.000000
v 0.000000 -1.159913 0.000000
v 0.000000 1.159913 0.000000
v 0.823978 0.823978 0.000000
v 0.823978 -0.823978 0.000000
v 0.519685 1.039370 0.000000
v 0.519685 -1.039370 0.000000
v 1.039370 0.519685 0.000000
v 1.039370 -0.519685 0.000000
v -0.823978 0.823978 0.141320
v -0.823978 -0.823978 0.141320
v -0.500000 0.000000 0.141320
v -0.500000 0.500000 0.141320
v -0.500000 -0.500000 0.141320
v -1.159913 0.000000 0.141320
v -0.519685 -1.039370 0.141320
v -0.519685 1.039370 0.141320
v -1.039370 0.519685 0.141320
v -1.039370 -0.519685 0.141320
v -1.159913 0.000000 0.000000
v -0.823978 0.823978 0.000000
v -0.823978 -0.823978 0.000000
v -0.519685 1.039370 0.000000
v -0.519685 -1.039370 0.000000
v -1.039370 0.519685 0.000000
v -1.039370 -0.519685 0.000000
v 0.823978 0.823978 -0.141320
v 0.823978 -0.823978 -0.141320
v 0.000000 0.000000 -0.141320
v 0.500000 0.000000 -0.141320
v 0.000000 0.500000 -0.141320
v 0.500000 0.500000 -0.141320
v 0.000000 -0.500000 -0.141320
v 0.500000 -0.500000 -0.141320
v 0.000000 -1.159913 -0.141320
v 0.000000 1.159913 -0.141320
v 1.159913 0.000000 -0.141320
v 0.519685 -1.039370 -0.141320
v 0.519685 1.039370 -0.141320
v 1.039370 0.519685 -0.141320
v 1.039370 -0.519685 -0.141320
v -0.823978 0.823978 -0.141320
v -0.823978 -0.823978 -0.141320
v -0.500000 0.000000 -0.141320
v -0.500000 0.500000 -0.141320
v -0.500000 -0.500000 -0.141320
v -1.159913 0.000000 -0.141320
v -0.519685 -1.039370 -0.141320
v -0.519685 1.039370 -0.141320
v -1.039370 0.519685 -0.141320
v -1.039370 -0.519685 -0.141320
vt 0.665826 0.685667
vt 0.866472 0.685667
vt 0.800033 0.805222
vt 0.665826 0.908808
vt 0.665826 0.324353
vt 0.665826 0.511760
vt 0.516778 0.511760
vt 0.516778 0.324353
vt 0.234161 0.463488
vt 0.239953 0.463488
vt 0.239953 0.478507
vt 0.234161 0.478507
vt 0.866472 0.324353
vt 0.893305 0.511760
vt 0.665826 0.120315
vt 0.800033 0.212118
vt 0.239953 0.500000
vt 0.239953 0.521492
vt 0.234161 0.521492
vt 0.234161 0.500000
vt 0.516778 0.685667
vt 0.239953 0.426976
vt 0.239953 0.448469
vt 0.234161 0.448469
vt 0.234161 0.426976
vt 0.239953 0.536511
vt 0.239953 0.551531
vt 0.234161 0.551531
vt 0.234161 0.536511
vt 0.516778 0.120315
vt 0.239953 0.573023
vt 0.234161 0.573023
vt 0.516778 0.908808
vt 0.353126 0.685667
vt 0.353126 0.908808
vt 0.218919 0.805222
vt 0.152480 0.685667
vt 0.353126 0.324353
vt 0.502173 0.324353
vt 0.502173 0.511760
vt 0.353126 0.511760
vt 0.277107 0.432669
vt 0.261829 0.432669
vt 0.261829 0.426976
vt 0.277107 0.426976
vt 0.125646 0.511760
vt 0.152480 0.324353
vt 0.353126 0.120315
vt 0.218919 0.212119
vt 0.119526 0.443422
vt 0.150018 0.443422
vt 0.150018 0.556578
vt 0.119526 0.556578
vt 0.502173 0.685667
vt 0.314249 0.426976
vt 0.314249 0.432669
vt 0.292386 0.432669
vt 0.292386 0.426976
vt 0.277107 0.432683
vt 0.277107 0.438376
vt 0.261829 0.438376
vt 0.261829 0.432683
vt 0.239966 0.432669
vt 0.239966 0.426976
vt 0.502173 0.120315
vt 0.239966 0.438376
vt 0.239966 0.432683
vt 0.292386 0.432683
vt 0.292386 0.438376
vt 0.502173 0.908808
vt 0.665826 0.685667
vt 0.665826 0.908808
vt 0.800033 0.805222
vt 0.866472 0.685667
vt 0.665826 0.324353
vt 0.516778 0.324353
vt 0.516778 0.511760
vt 0.665826 0.511760
vt 0.234161 0.463488
vt 0.234161 0.478507
vt 0.893305 0.511760
vt 0.866472 0.324353
vt 0.665826 0.120315
vt 0.800033 0.212118
vt 0.234161 0.500000
vt 0.234161 0.521492
vt 0.516778 0.685667
vt 0.234161 0.426976
vt 0.234161 0.448469
vt 0.234161 0.536511
vt 0.234161 0.551531
vt 0.516778 0.120315
vt 0.234161 0.573023
vt 0.516778 0.908808
vt 0.353126 0.685667
vt 0.152480 0.685667
vt 0.218919 0.805222
vt 0.353126 0.908808
vt 0.353126 0.324353
vt 0.353126 0.511760
vt 0.502173 0.511760
vt 0.502173 0.324353
vt 0.277107 0.432669
vt 0.261829 0.432669
vt 0.152480 0.324353
vt 0.125646 0.511760
vt 0.353126 0.120315
vt 0.218919 0.212119
vt 0.150018 0.556578
vt 0.150018 0.443422
vt 0.502173 0.685667
vt 0.292386 0.432669
vt 0.314249 0.432669
vt 0.261829 0.438376
vt 0.277107 0.438376
vt 0.239966 0.432669
vt 0.502173 0.120315
vt 0.239966 0.438376
vt 0.292386 0.438376
vt 0.502173 0.908808
vn 0.0000 0.0000 1.0000
vn 0.8162 -0.5778 0.0000
vn 0.9741 0.2260 0.0000
vn 0.2260 -0.9741 0.0000
vn 0.5778 0.8162 0.0000
vn 0.9741 -0.2260 0.0000
vn 0.2260 0.9741 0.0000
vn 0.5778 -0.8162 0.0000
vn 0.8162 0.5778 0.0000
vn -0.8162 -0.5778 0.0000
vn -0.9741 0.2260 0.0000
vn -0.2260 -0.9741 0.0000
vn -0.5778 0.8162 0.0000
vn -0.9741 -0.2260 0.0000
vn -0.2260 0.9741 0.0000
vn -0.5778 -0.8162 0.0000
vn -0.8162 0.5778 0.0000
vn 0.0000 0.0000 -1.0000
usemtl Material.002
s off
f 6/1/1 14/2/1 1/3/1 13/4/1
f 8/5/1 4/6/1 3/7/1 7/8/1
f 2/9/2 20/10/2 24/11/2 15/12/2
f 8/5/1 15/13/1 11/14/1 4/6/1
f 12/15/1 2/16/1 15/13/1 8/5/1
f 16/17/3 23/18/3 14/19/3 11/20/3
f 4/6/1 6/1/1 5/21/1 3/7/1
f 17/22/4 22/23/4 12/24/4 9/25/4
f 19/26/5 21/27/5 13/28/5 1/29/5
f 24/11/6 16/17/6 11/20/6 15/12/6
f 9/30/1 12/15/1 8/5/1 7/8/1
f 21/27/7 18/31/7 10/32/7 13/28/7
f 2/9/8 12/24/8 22/23/8 20/10/8
f 23/18/9 19/26/9 1/29/9 14/19/9
f 10/33/1 5/21/1 6/1/1 13/4/1
f 11/14/1 14/2/1 6/1/1 4/6/1
f 28/34/1 32/35/1 25/36/1 33/37/1
f 29/38/1 7/39/1 3/40/1 27/41/1
f 26/42/10 34/43/10 41/44/10 37/45/10
f 29/38/1 27/41/1 30/46/1 34/47/1
f 31/48/1 29/38/1 34/47/1 26/49/1
f 35/50/11 30/51/11 33/52/11 40/53/11
f 27/41/1 3/40/1 5/54/1 28/34/1
f 17/55/12 9/56/12 31/57/12 39/58/12
f 36/59/13 25/60/13 32/61/13 38/62/13
f 41/44/14 34/43/14 30/63/14 35/64/14
f 9/65/1 7/39/1 29/38/1 31/48/1
f 38/62/15 32/61/15 10/66/15 18/67/15
f 26/42/16 37/45/16 39/58/16 31/57/16
f 40/68/17 33/69/17 25/60/17 36/59/17
f 10/70/1 32/35/1 28/34/1 5/54/1
f 30/46/1 27/41/1 28/34/1 33/37/1
f 47/71/18 54/72/18 42/73/18 55/74/18
f 49/75/18 48/76/18 44/77/18 45/78/18
f 43/79/2 56/80/2 24/11/2 20/10/2
f 49/75/18 45/78/18 52/81/18 56/82/18
f 53/83/18 49/75/18 56/82/18 43/84/18
f 16/17/3 52/85/3 55/86/3 23/18/3
f 45/78/18 44/77/18 46/87/18 47/71/18
f 17/22/4 50/88/4 53/89/4 22/23/4
f 19/26/5 42/90/5 54/91/5 21/27/5
f 24/11/6 56/80/6 52/85/6 16/17/6
f 50/92/18 48/76/18 49/75/18 53/83/18
f 21/27/7 54/91/7 51/93/7 18/31/7
f 43/79/8 20/10/8 22/23/8 53/89/8
f 23/18/9 55/86/9 42/90/9 19/26/9
f 51/94/18 54/72/18 47/71/18 46/87/18
f 52/81/18 45/78/18 47/71/18 55/74/18
f 60/95/18 65/96/18 57/97/18 64/98/18
f 61/99/18 59/100/18 44/101/18 48/102/18
f 58/103/10 37/45/10 41/44/10 66/104/10
f 61/99/18 66/105/18 62/106/18 59/100/18
f 63/107/18 58/108/18 66/105/18 61/99/18
f 35/50/11 40/53/11 65/109/11 62/110/11
f 59/100/18 60/95/18 46/111/18 44/101/18
f 17/55/12 39/58/12 63/112/12 50/113/12
f 36/59/13 38/62/13 64/114/13 57/115/13
f 41/44/14 35/64/14 62/116/14 66/104/14
f 50/117/18 63/107/18 61/99/18 48/102/18
f 38/62/15 18/67/15 51/118/15 64/114/15
f 58/103/16 63/112/16 39/58/16 37/45/16
f 40/68/17 36/59/17 57/115/17 65/119/17
f 51/120/18 46/111/18 60/95/18 64/98/18
f 62/106/18 65/96/18 60/95/18 59/100/18
